<svg width="24" height="24" viewBox="0 0 24 24" fill="none" xmlns="http://www.w3.org/2000/svg">
<path d="M13.6641 2.90766C12.6564 2.23586 11.3436 2.23586 10.3359 2.90766L3.3359 7.57432C2.5013 8.13072 2 9.06742 2 10.0705V21.0001C2 21.5524 2.44772 22.0001 3 22.0001H7C7.55228 22.0001 8 21.5524 8 21.0001V13.0001H16V21.0001C16 21.5524 16.4477 22.0001 17 22.0001H21C21.5523 22.0001 22 21.5524 22 21.0001V10.0705C22 9.06741 21.4987 8.13072 20.6641 7.57432L13.6641 2.90766Z" fill="#5b657c"/>
<path d="M10 14.0001C9.44772 14.0001 9 14.4478 9 15.0001C9 15.5524 9.44772 16.0001 10 16.0001H14C14.5523 16.0001 15 15.5524 15 15.0001C15 14.4478 14.5523 14.0001 14 14.0001H10Z" fill="#5b657c"/>
<path d="M10 17.0001C9.44772 17.0001 9 17.4478 9 18.0001C9 18.5524 9.44772 19.0001 10 19.0001H14C14.5523 19.0001 15 18.5524 15 18.0001C15 17.4478 14.5523 17.0001 14 17.0001H10Z" fill="#5b657c"/>
<path d="M10 20.0001C9.44772 20.0001 9 20.4478 9 21.0001C9 21.5524 9.44772 22.0001 10 22.0001H14C14.5523 22.0001 15 21.5524 15 21.0001C15 20.4478 14.5523 20.0001 14 20.0001H10Z" fill="#5b657c"/>
</svg>
