<svg width="24" height="24" viewBox="0 0 24 24" fill="none" xmlns="http://www.w3.org/2000/svg">
<path d="M17.3963 11.2342C17.0979 10.5637 16.6796 9.93262 16.1294 9.38242C15.5788 8.83266 14.9481 8.41391 14.2775 8.11548L13.4469 8.94612L12.8697 9.52286L12.2707 10.1219C12.1594 10.2328 12.0648 10.3535 11.9821 10.4798C12.7772 10.5316 13.5214 10.8523 14.09 11.4214C14.6749 12.0058 14.9789 12.7585 15.0294 13.5245C15.0581 13.9501 15.0054 14.3766 14.8688 14.7855C14.7173 15.2402 14.4732 15.6688 14.1187 16.0344C14.1076 16.0451 14.1011 16.0584 14.0909 16.0691L13.4105 16.7486L12.4668 17.6923L11.5865 18.573L9.29193 20.8676C8.67109 21.4884 7.84643 21.8296 6.96783 21.8296C6.09093 21.8296 5.26457 21.4875 4.64372 20.8667C4.02373 20.2467 3.68205 19.4212 3.68205 18.5435C3.68205 17.6657 4.0233 16.8398 4.64415 16.2194L6.94214 13.921C6.81069 13.5134 6.71692 13.0963 6.65912 12.6754C6.6163 12.3616 6.58718 12.046 6.5859 11.7296C6.58162 11.1482 6.65355 10.5672 6.788 9.99813L2.60477 14.1809C0.196317 16.5902 0.196317 20.4968 2.60477 22.9061C3.80964 24.1101 5.38831 24.7129 6.96697 24.7129C8.54649 24.7129 10.1252 24.1105 11.3296 22.9061L15.5064 18.7293L16.1285 18.108C16.4843 17.7518 16.7815 17.3596 17.032 16.9477C17.4263 16.3012 17.6943 15.6007 17.8284 14.8779C17.8973 14.5063 17.9341 14.1299 17.9341 13.7527C17.935 13.2924 17.8785 12.833 17.7765 12.3817C17.6892 11.99 17.5625 11.6059 17.3963 11.2342Z" fill="#5b657c"/>
<path d="M22.9921 2.51975C21.7872 1.31532 20.2081 0.712891 18.6299 0.712891C17.0504 0.713319 15.4717 1.31532 14.2673 2.52018L10.0909 6.69651L9.46877 7.31864C9.11253 7.67487 8.81581 8.06707 8.5649 8.47854C8.17098 9.12507 7.90252 9.82555 7.76807 10.5483C7.69914 10.9199 7.66232 11.2967 7.66232 11.6735C7.66189 12.1338 7.71798 12.5932 7.81988 13.0449C7.90852 13.4363 8.03525 13.8203 8.20138 14.1924C8.49982 14.8625 8.91771 15.4932 9.46834 16.0434C10.019 16.5936 10.6492 17.0119 11.3202 17.3108L12.1504 16.4805L12.7276 15.9038L13.3261 15.3052C13.4375 15.1939 13.5325 15.0732 13.6152 14.9464C12.8196 14.8946 12.0755 14.5743 11.5064 14.0049C10.9207 13.4196 10.6167 12.6651 10.5662 11.8974C10.5388 11.4731 10.5923 11.0488 10.728 10.6408C10.8787 10.1861 11.1228 9.75704 11.4782 9.39182C11.4889 9.38111 11.4957 9.36827 11.5064 9.35714L12.1864 8.67721L13.1305 7.73353L14.0112 6.85279L16.3054 4.55911C16.9262 3.93827 17.7513 3.59616 18.6299 3.59616C19.5076 3.59616 20.3332 3.93827 20.9531 4.55868C22.2351 5.84018 22.2351 7.92535 20.954 9.20642L18.6552 11.5048C18.787 11.9129 18.8804 12.3295 18.9382 12.7508C18.9814 13.0646 19.0101 13.3802 19.0114 13.6962C19.0157 14.2781 18.9442 14.8586 18.8084 15.4277L22.9921 11.2449C25.4005 8.83563 25.4005 4.92904 22.9921 2.51975Z" fill="#5b657c"/>
</svg>
